<svg width="1200" height="675" viewBox="0 0 1200 675" xmlns="http://www.w3.org/2000/svg" role="img" aria-labelledby="title desc">
  <title id="title">Childcare Deserts NYC project thumbnail</title>
  <desc id="desc">Warm portfolio-style visual showing optimization for childcare access and capacity planning.</desc>
  <defs>
    <linearGradient id="bg" x1="70" y1="56" x2="1120" y2="620" gradientUnits="userSpaceOnUse">
      <stop stop-color="#FFF9EF"/>
      <stop offset="1" stop-color="#F8E7D2"/>
    </linearGradient>
  </defs>
  <rect width="1200" height="675" rx="36" fill="#FFF6E8"/>
  <rect x="58" y="58" width="1084" height="559" rx="28" fill="url(#bg)" stroke="#E2D4BB" stroke-width="2"/>
  <text x="96" y="214" fill="#A84B00" font-family="Space Grotesk, Arial, sans-serif" font-size="30" font-weight="700" letter-spacing="2.6">OPTIMIZATION</text>
  <text x="96" y="304" fill="#38240D" font-family="Source Serif 4, Georgia, serif" font-size="74">Childcare Deserts</text>
  <text x="96" y="378" fill="#38240D" font-family="Source Serif 4, Georgia, serif" font-size="74">NYC</text>
  <text x="96" y="438" fill="#5C4630" font-family="Space Grotesk, Arial, sans-serif" font-size="28">Capacity expansion and siting decisions</text>
  <text x="96" y="476" fill="#5C4630" font-family="Space Grotesk, Arial, sans-serif" font-size="28">under cost and spacing constraints.</text>
  <rect x="742" y="132" width="330" height="392" rx="28" fill="#FFFDF8" stroke="#D6C9AE" stroke-width="2"/>
  <path d="M790 438 C834 386 856 320 906 288 C944 264 994 246 1028 198" fill="none" stroke="#D9C4A1" stroke-width="16" stroke-linecap="round"/>
  <rect x="806" y="338" width="54" height="82" rx="12" fill="#F3E3C7" stroke="#E2D4BB" stroke-width="2"/>
  <rect x="884" y="286" width="54" height="134" rx="12" fill="#FFE7C3" stroke="#E2D4BB" stroke-width="2"/>
  <rect x="962" y="224" width="54" height="196" rx="12" fill="#C05800" fill-opacity="0.84"/>
  <circle cx="828" cy="456" r="18" fill="#D97706"/>
  <circle cx="910" cy="246" r="18" fill="#9C6A3D"/>
  <circle cx="1020" cy="198" r="18" fill="#D97706"/>
  <rect x="802" y="470" width="228" height="10" rx="5" fill="#E2D4BB"/>
</svg>
