<svg width="1200" height="675" viewBox="0 0 1200 675" xmlns="http://www.w3.org/2000/svg" role="img" aria-labelledby="title desc">
  <title id="title">Forvia multi-sensor localization thumbnail</title>
  <desc id="desc">Warm portfolio-style visual showing camera and radar inputs fused into a localization estimate.</desc>
  <defs>
    <linearGradient id="bg" x1="70" y1="56" x2="1120" y2="620" gradientUnits="userSpaceOnUse">
      <stop stop-color="#FFF9EF"/>
      <stop offset="1" stop-color="#F8E7D2"/>
    </linearGradient>
  </defs>
  <rect width="1200" height="675" rx="36" fill="#FFF6E8"/>
  <rect x="58" y="58" width="1084" height="559" rx="28" fill="url(#bg)" stroke="#E2D4BB" stroke-width="2"/>
  <text x="96" y="214" fill="#A84B00" font-family="Space Grotesk, Arial, sans-serif" font-size="30" font-weight="700" letter-spacing="2.6">SENSOR FUSION</text>
  <text x="96" y="304" fill="#38240D" font-family="Source Serif 4, Georgia, serif" font-size="66">Forvia Multi-Sensor</text>
  <text x="96" y="374" fill="#38240D" font-family="Source Serif 4, Georgia, serif" font-size="66">Localization Research</text>
  <text x="96" y="436" fill="#5C4630" font-family="Space Grotesk, Arial, sans-serif" font-size="28">Camera priors, array likelihoods, and</text>
  <text x="96" y="474" fill="#5C4630" font-family="Space Grotesk, Arial, sans-serif" font-size="28">optimal-transport-based localization.</text>
  <rect x="744" y="132" width="330" height="392" rx="28" fill="#FFFDF8" stroke="#D6C9AE" stroke-width="2"/>
  <rect x="790" y="190" width="82" height="60" rx="18" fill="#FFE7C3" stroke="#C05800" stroke-width="4"/>
  <circle cx="831" cy="220" r="14" fill="#C05800"/>
  <path d="M872 220 C910 198 950 190 1000 188" fill="none" stroke="#D97706" stroke-width="5" stroke-linecap="round"/>
  <path d="M872 220 C920 246 958 276 1004 330" fill="none" stroke="#D97706" stroke-width="5" stroke-linecap="round" stroke-opacity="0.65"/>
  <path d="M780 392 C842 340 936 324 1038 346" fill="none" stroke="#9C6A3D" stroke-width="8" stroke-linecap="round"/>
  <path d="M780 432 C854 384 938 372 1038 392" fill="none" stroke="#9C6A3D" stroke-width="5" stroke-linecap="round" stroke-opacity="0.55"/>
  <circle cx="976" cy="340" r="24" fill="#C05800"/>
  <circle cx="976" cy="340" r="52" fill="none" stroke="#C05800" stroke-width="5" stroke-opacity="0.24"/>
  <circle cx="976" cy="340" r="84" fill="none" stroke="#C05800" stroke-width="4" stroke-opacity="0.14"/>
</svg>
