<svg width="1200" height="675" viewBox="0 0 1200 675" xmlns="http://www.w3.org/2000/svg" role="img" aria-labelledby="title desc">
  <title id="title">HelpfulLens project thumbnail</title>
  <desc id="desc">Warm portfolio-style visual showing review helpfulness scoring and sentiment features.</desc>
  <defs>
    <linearGradient id="bg" x1="70" y1="56" x2="1120" y2="620" gradientUnits="userSpaceOnUse">
      <stop stop-color="#FFF9EF"/>
      <stop offset="1" stop-color="#F8E7D2"/>
    </linearGradient>
  </defs>
  <rect width="1200" height="675" rx="36" fill="#FFF6E8"/>
  <rect x="58" y="58" width="1084" height="559" rx="28" fill="url(#bg)" stroke="#E2D4BB" stroke-width="2"/>
  <text x="96" y="214" fill="#A84B00" font-family="Space Grotesk, Arial, sans-serif" font-size="30" font-weight="700" letter-spacing="2.6">APPLIED ML</text>
  <text x="96" y="306" fill="#38240D" font-family="Source Serif 4, Georgia, serif" font-size="80">HelpfulLens</text>
  <text x="96" y="366" fill="#5C4630" font-family="Space Grotesk, Arial, sans-serif" font-size="28">Review helpfulness modeling with sentiment</text>
  <text x="96" y="404" fill="#5C4630" font-family="Space Grotesk, Arial, sans-serif" font-size="28">features and reproducible ML workflows.</text>
  <rect x="746" y="138" width="330" height="370" rx="28" fill="#FFFDF8" stroke="#D6C9AE" stroke-width="2"/>
  <rect x="790" y="190" width="242" height="54" rx="18" fill="#FFE7C3"/>
  <rect x="790" y="270" width="196" height="16" rx="8" fill="#9C6A3D"/>
  <rect x="790" y="304" width="236" height="16" rx="8" fill="#D9C4A1"/>
  <rect x="790" y="338" width="166" height="16" rx="8" fill="#D9C4A1"/>
  <path d="M842 404 L855 430 L884 434 L863 454 L868 484 L842 470 L816 484 L821 454 L800 434 L829 430 Z" fill="#C05800"/>
  <path d="M936 404 L949 430 L978 434 L957 454 L962 484 L936 470 L910 484 L915 454 L894 434 L923 430 Z" fill="#D97706" fill-opacity="0.72"/>
  <circle cx="820" cy="217" r="10" fill="#C05800"/>
  <rect x="846" y="207" width="126" height="20" rx="10" fill="#C47B36"/>
</svg>
