<svg width="1200" height="675" viewBox="0 0 1200 675" xmlns="http://www.w3.org/2000/svg" role="img" aria-labelledby="title desc">
  <title id="title">HelpfulLens project thumbnail</title>
  <desc id="desc">Stylized analytics and review signal visual for the HelpfulLens featured project.</desc>
  <defs>
    <linearGradient id="bg" x1="0" y1="0" x2="1" y2="1">
      <stop offset="0%" stop-color="#382015" />
      <stop offset="100%" stop-color="#17100d" />
    </linearGradient>
  </defs>
  <rect width="1200" height="675" fill="url(#bg)" />
  <rect x="64" y="64" width="1072" height="547" rx="28" fill="none" stroke="#ffb074" stroke-opacity="0.36" stroke-width="4" />
  <rect x="760" y="150" width="300" height="300" rx="28" fill="#241711" stroke="#ffb074" stroke-opacity="0.28" />
  <path d="M 820 238 L 835 271 L 871 275 L 844 299 L 851 334 L 820 316 L 789 334 L 796 299 L 769 275 L 805 271 Z" fill="#ffb074" />
  <path d="M 918 198 L 930 224 L 958 227 L 937 245 L 943 272 L 918 258 L 893 272 L 899 245 L 878 227 L 906 224 Z" fill="#ffb074" fill-opacity="0.72" />
  <path d="M 986 286 L 998 312 L 1026 315 L 1005 333 L 1011 360 L 986 346 L 961 360 L 967 333 L 946 315 L 974 312 Z" fill="#ffb074" fill-opacity="0.56" />
  <rect x="806" y="392" width="48" height="18" rx="9" fill="#fff1e7" fill-opacity="0.9" />
  <rect x="870" y="374" width="96" height="18" rx="9" fill="#fff1e7" fill-opacity="0.58" />
  <rect x="982" y="408" width="44" height="18" rx="9" fill="#fff1e7" fill-opacity="0.42" />
  <text x="96" y="210" fill="#ffb074" font-family="Space Grotesk, Arial, sans-serif" font-size="34" letter-spacing="3">FEATURED PROJECT</text>
  <text x="96" y="312" fill="#fff8f2" font-family="Source Serif 4, Georgia, serif" font-size="74">HelpfulLens</text>
  <text x="96" y="392" fill="#dfc1b3" font-family="Space Grotesk, Arial, sans-serif" font-size="30">Review helpfulness modeling, sentiment features, reproducible ML workflow.</text>
</svg>
