<svg width="1200" height="675" viewBox="0 0 1200 675" xmlns="http://www.w3.org/2000/svg" role="img" aria-labelledby="title desc">
  <title id="title">Tomorrow You project thumbnail</title>
  <desc id="desc">Stylized branching conversation visual for the Tomorrow You featured project.</desc>
  <defs>
    <linearGradient id="bg" x1="0" y1="0" x2="1" y2="1">
      <stop offset="0%" stop-color="#0f2d3b" />
      <stop offset="100%" stop-color="#08161f" />
    </linearGradient>
  </defs>
  <rect width="1200" height="675" fill="url(#bg)" />
  <rect x="64" y="64" width="1072" height="547" rx="28" fill="none" stroke="#86f1d1" stroke-opacity="0.36" stroke-width="4" />
  <circle cx="880" cy="170" r="24" fill="#86f1d1" />
  <circle cx="980" cy="260" r="24" fill="#86f1d1" />
  <circle cx="860" cy="340" r="24" fill="#86f1d1" />
  <circle cx="1015" cy="395" r="24" fill="#86f1d1" />
  <path d="M 880 194 C 900 220, 940 225, 980 236" fill="none" stroke="#86f1d1" stroke-width="6" stroke-linecap="round" />
  <path d="M 880 194 C 870 225, 860 285, 860 316" fill="none" stroke="#86f1d1" stroke-width="6" stroke-linecap="round" />
  <path d="M 860 364 C 900 375, 960 385, 991 390" fill="none" stroke="#86f1d1" stroke-width="6" stroke-linecap="round" />
  <rect x="790" y="450" width="260" height="86" rx="20" fill="#112936" stroke="#86f1d1" stroke-opacity="0.25" />
  <rect x="820" y="478" width="156" height="10" rx="5" fill="#dffdf4" fill-opacity="0.9" />
  <rect x="820" y="502" width="196" height="10" rx="5" fill="#dffdf4" fill-opacity="0.42" />
  <text x="96" y="210" fill="#86f1d1" font-family="Space Grotesk, Arial, sans-serif" font-size="34" letter-spacing="3">FEATURED PROJECT</text>
  <text x="96" y="312" fill="#f4f8ff" font-family="Source Serif 4, Georgia, serif" font-size="74">Tomorrow You</text>
  <text x="96" y="392" fill="#bfd8e2" font-family="Space Grotesk, Arial, sans-serif" font-size="30">Branching futures. Voice onboarding. AI decision support.</text>
</svg>
