<svg width="1200" height="675" viewBox="0 0 1200 675" xmlns="http://www.w3.org/2000/svg" role="img" aria-labelledby="title desc">
  <title id="title">Zeit project thumbnail</title>
  <desc id="desc">Warm portfolio-style visual showing a scheduling assistant and optimized work blocks.</desc>
  <defs>
    <linearGradient id="bg" x1="70" y1="56" x2="1120" y2="620" gradientUnits="userSpaceOnUse">
      <stop stop-color="#FFF9EF"/>
      <stop offset="1" stop-color="#F8E7D2"/>
    </linearGradient>
  </defs>
  <rect width="1200" height="675" rx="36" fill="#FFF6E8"/>
  <rect x="58" y="58" width="1084" height="559" rx="28" fill="url(#bg)" stroke="#E2D4BB" stroke-width="2"/>
  <text x="96" y="214" fill="#A84B00" font-family="Space Grotesk, Arial, sans-serif" font-size="30" font-weight="700" letter-spacing="2.6">SCHEDULING</text>
  <text x="96" y="306" fill="#38240D" font-family="Source Serif 4, Georgia, serif" font-size="88">Zeit</text>
  <text x="96" y="366" fill="#5C4630" font-family="Space Grotesk, Arial, sans-serif" font-size="28">Planning demo with hard events, generated</text>
  <text x="96" y="404" fill="#5C4630" font-family="Space Grotesk, Arial, sans-serif" font-size="28">work blocks, and clear unscheduled tasks.</text>
  <rect x="738" y="130" width="330" height="392" rx="28" fill="#FFFDF8" stroke="#D6C9AE" stroke-width="2"/>
  <rect x="778" y="180" width="250" height="42" rx="14" fill="#F3E3C7"/>
  <rect x="778" y="248" width="62" height="132" rx="14" fill="#FFE7C3" stroke="#E2D4BB" stroke-width="2"/>
  <rect x="858" y="248" width="62" height="78" rx="14" fill="#D97706" fill-opacity="0.78"/>
  <rect x="938" y="248" width="62" height="160" rx="14" fill="#9C6A3D" fill-opacity="0.74"/>
  <rect x="858" y="346" width="62" height="84" rx="14" fill="#FFE7C3" stroke="#E2D4BB" stroke-width="2"/>
  <path d="M778 458 H1028" stroke="#D9C4A1" stroke-width="10" stroke-linecap="round"/>
  <rect x="778" y="490" width="106" height="34" rx="14" fill="#C05800"/>
  <rect x="902" y="490" width="126" height="34" rx="14" fill="#E8DFC7"/>
  <circle cx="800" cy="201" r="8" fill="#C05800"/>
  <circle cx="828" cy="201" r="8" fill="#D97706"/>
  <circle cx="856" cy="201" r="8" fill="#9C6A3D"/>
</svg>
