<svg width="1200" height="675" viewBox="0 0 1200 675" xmlns="http://www.w3.org/2000/svg" role="img" aria-labelledby="title desc">
  <title id="title">Zeit project thumbnail</title>
  <desc id="desc">Stylized scheduling grid and optimization interface visual for the Zeit featured project.</desc>
  <defs>
    <linearGradient id="bg" x1="0" y1="0" x2="1" y2="1">
      <stop offset="0%" stop-color="#1f2949" />
      <stop offset="100%" stop-color="#0d1120" />
    </linearGradient>
  </defs>
  <rect width="1200" height="675" fill="url(#bg)" />
  <rect x="64" y="64" width="1072" height="547" rx="28" fill="none" stroke="#9ab7ff" stroke-opacity="0.34" stroke-width="4" />

  <rect x="760" y="144" width="302" height="362" rx="22" fill="#141b31" stroke="#9ab7ff" stroke-opacity="0.22" />
  <rect x="794" y="188" width="62" height="34" rx="10" fill="#9ab7ff" fill-opacity="0.24" />
  <rect x="876" y="188" width="62" height="34" rx="10" fill="#9ab7ff" fill-opacity="0.44" />
  <rect x="958" y="188" width="62" height="34" rx="10" fill="#9ab7ff" fill-opacity="0.18" />
  <rect x="794" y="236" width="62" height="72" rx="12" fill="#8df1c7" fill-opacity="0.72" />
  <rect x="876" y="236" width="62" height="34" rx="10" fill="#9ab7ff" fill-opacity="0.22" />
  <rect x="958" y="236" width="62" height="110" rx="12" fill="#8df1c7" fill-opacity="0.42" />
  <rect x="794" y="322" width="62" height="34" rx="10" fill="#9ab7ff" fill-opacity="0.2" />
  <rect x="876" y="284" width="62" height="72" rx="12" fill="#8df1c7" fill-opacity="0.88" />
  <rect x="794" y="372" width="226" height="18" rx="9" fill="#e8eeff" fill-opacity="0.58" />
  <rect x="794" y="404" width="188" height="18" rx="9" fill="#e8eeff" fill-opacity="0.34" />
  <rect x="794" y="452" width="96" height="36" rx="12" fill="#8df1c7" fill-opacity="0.84" />
  <rect x="906" y="452" width="114" height="36" rx="12" fill="#9ab7ff" fill-opacity="0.3" />

  <text x="96" y="210" fill="#9ab7ff" font-family="Space Grotesk, Arial, sans-serif" font-size="34" letter-spacing="3">FEATURED PROJECT</text>
  <text x="96" y="304" fill="#f4f7ff" font-family="Source Serif 4, Georgia, serif" font-size="84">Zeit</text>
  <text x="96" y="388" fill="#c5d0f1" font-family="Space Grotesk, Arial, sans-serif" font-size="30">Scheduling systems, task planning, solver-ready product infrastructure.</text>
</svg>
